<svg width="512" height="512" viewBox="0 0 512 512" fill="none" xmlns="http://www.w3.org/2000/svg">
<rect width="512" height="512" rx="64" fill="url(#paint0_linear_107_17)"/>
<path d="M472 363H379.429C371.245 363 363.396 359.764 357.609 354.004C351.822 348.244 348.571 340.432 348.571 332.286V178.714C348.571 170.568 351.822 162.756 357.609 156.996C363.396 151.236 371.245 148 379.429 148H472V178.714H379.429V332.286H441.143V270.857H410.286V240.143H472V363Z" fill="white"/>
<path d="M286.857 148L256 347.643L225.143 148H194.286L233.166 363H278.834L317.714 148H286.857Z" fill="white"/>
<path d="M132.571 363H40V332.286H132.571V270.857H70.8571C62.6733 270.857 54.8247 267.621 49.0378 261.861C43.251 256.101 40 248.289 40 240.143V178.714C40 170.568 43.251 162.756 49.0378 156.996C54.8247 151.236 62.6733 148 70.8571 148H163.429V178.714H70.8571V240.143H132.571C140.755 240.143 148.604 243.379 154.391 249.139C160.178 254.899 163.429 262.711 163.429 270.857V332.286C163.429 340.432 160.178 348.244 154.391 354.004C148.604 359.764 140.755 363 132.571 363Z" fill="white"/>
<defs>
<linearGradient id="paint0_linear_107_17" x1="0" y1="256" x2="512" y2="256" gradientUnits="userSpaceOnUse">
<stop stop-color="#E96443"/>
<stop offset="1" stop-color="#904E95"/>
</linearGradient>
</defs>
</svg>
